<svg width="260" height="247" viewBox="0 0 260 247" fill="none" xmlns="http://www.w3.org/2000/svg">
<path d="M4.42632 222.5L130 5.00001L255.574 222.5H4.42632Z" stroke="white" stroke-width="5"/>
<path d="M193.103 67.0321L195.738 65.5108L202.906 77.9255L200.271 79.4468L197.599 74.819L185.118 82.0249L183.294 78.8659L195.775 71.6599L193.103 67.0321ZM188.97 88.6973L204.086 79.97L209.967 90.1556L207.332 91.6769L203.297 84.6872L199.695 86.7668L203.428 93.2324L200.793 94.7538L197.06 88.2881L193.45 90.3719L197.503 97.3911L194.868 98.9124L188.97 88.6973ZM211.434 92.6965L213.71 96.6379L205.957 106.664L206.059 106.842L218.619 105.141L220.894 109.082L205.778 117.809L203.988 114.709L213.827 109.029L213.755 108.904L201.731 110.629L200.513 108.518L208.056 98.9475L207.983 98.8221L198.108 104.524L196.318 101.424L211.434 92.6965ZM207.298 120.443L222.415 111.715L225.858 117.679C226.52 118.826 226.865 119.929 226.893 120.988C226.925 122.045 226.678 123.009 226.15 123.878C225.629 124.749 224.867 125.474 223.863 126.054C222.859 126.634 221.849 126.928 220.831 126.939C219.813 126.949 218.853 126.667 217.951 126.092C217.051 125.522 216.266 124.657 215.596 123.496L213.401 119.694L215.962 118.216L217.859 121.5C218.214 122.115 218.612 122.561 219.054 122.837C219.503 123.116 219.974 123.244 220.467 123.222C220.967 123.202 221.466 123.049 221.963 122.762C222.465 122.472 222.844 122.119 223.102 121.701C223.367 121.285 223.486 120.816 223.46 120.293C223.439 119.768 223.249 119.195 222.891 118.575L221.647 116.42L209.144 123.638L207.298 120.443ZM230.646 143.427C228.997 144.379 227.415 144.876 225.898 144.919C224.383 144.966 223.011 144.63 221.782 143.909C220.56 143.191 219.564 142.165 218.795 140.832C218.019 139.488 217.628 138.107 217.622 136.687C217.615 135.267 218.011 133.913 218.81 132.625C219.608 131.337 220.829 130.219 222.473 129.27C224.121 128.319 225.702 127.819 227.217 127.771C228.731 127.724 230.099 128.059 231.321 128.777C232.547 129.493 233.548 130.522 234.324 131.866C235.094 133.199 235.482 134.576 235.488 135.996C235.502 137.418 235.11 138.773 234.312 140.061C233.516 141.353 232.294 142.475 230.646 143.427ZM228.775 140.187C229.843 139.57 230.651 138.89 231.2 138.147C231.751 137.409 232.05 136.643 232.096 135.848C232.143 135.054 231.943 134.27 231.497 133.498C231.051 132.725 230.472 132.161 229.761 131.804C229.05 131.447 228.235 131.32 227.317 131.423C226.402 131.532 225.411 131.894 224.343 132.511C223.276 133.127 222.466 133.804 221.915 134.543C221.366 135.286 221.069 136.055 221.022 136.849C220.976 137.643 221.175 138.427 221.621 139.2C222.067 139.972 222.646 140.537 223.357 140.894C224.069 141.251 224.882 141.375 225.797 141.267C226.715 141.163 227.707 140.803 228.775 140.187Z" fill="white"/>
<path d="M103.918 234.656H100.185C100.116 234.173 99.9773 233.744 99.767 233.369C99.5568 232.989 99.2869 232.665 98.9574 232.398C98.6278 232.131 98.2472 231.926 97.8153 231.784C97.3892 231.642 96.9261 231.571 96.4261 231.571C95.5227 231.571 94.7358 231.795 94.0653 232.244C93.3949 232.687 92.875 233.335 92.5057 234.188C92.1364 235.034 91.9517 236.062 91.9517 237.273C91.9517 238.517 92.1364 239.562 92.5057 240.409C92.8807 241.256 93.4034 241.895 94.0739 242.327C94.7443 242.759 95.5199 242.974 96.4006 242.974C96.8949 242.974 97.3523 242.909 97.7727 242.778C98.1989 242.648 98.5767 242.457 98.9062 242.207C99.2358 241.952 99.5085 241.642 99.7244 241.278C99.946 240.915 100.099 240.5 100.185 240.034L103.918 240.051C103.821 240.852 103.58 241.625 103.193 242.369C102.813 243.108 102.298 243.77 101.651 244.355C101.009 244.935 100.241 245.395 99.3494 245.736C98.4631 246.071 97.4602 246.239 96.3409 246.239C94.7841 246.239 93.392 245.886 92.1648 245.182C90.9432 244.477 89.9773 243.457 89.267 242.122C88.5625 240.787 88.2102 239.17 88.2102 237.273C88.2102 235.369 88.5682 233.75 89.2841 232.415C90 231.08 90.9716 230.062 92.1989 229.364C93.4261 228.659 94.8068 228.307 96.3409 228.307C97.3523 228.307 98.2898 228.449 99.1534 228.733C100.023 229.017 100.793 229.432 101.463 229.977C102.134 230.517 102.679 231.179 103.099 231.963C103.526 232.747 103.798 233.645 103.918 234.656ZM117.345 228.545H121.036V239.881C121.036 241.153 120.732 242.267 120.124 243.222C119.521 244.176 118.678 244.92 117.592 245.455C116.507 245.983 115.243 246.247 113.8 246.247C112.351 246.247 111.084 245.983 109.999 245.455C108.913 244.92 108.07 244.176 107.467 243.222C106.865 242.267 106.564 241.153 106.564 239.881V228.545H110.254V239.565C110.254 240.23 110.399 240.821 110.689 241.338C110.984 241.855 111.399 242.261 111.933 242.557C112.467 242.852 113.089 243 113.8 243C114.516 243 115.138 242.852 115.666 242.557C116.2 242.261 116.612 241.855 116.902 241.338C117.197 240.821 117.345 240.23 117.345 239.565V228.545ZM133.54 233.565C133.472 232.878 133.18 232.344 132.663 231.963C132.146 231.582 131.444 231.392 130.558 231.392C129.955 231.392 129.447 231.477 129.032 231.648C128.617 231.812 128.299 232.043 128.077 232.338C127.862 232.634 127.754 232.969 127.754 233.344C127.742 233.656 127.808 233.929 127.95 234.162C128.097 234.395 128.299 234.597 128.555 234.767C128.81 234.932 129.106 235.077 129.441 235.202C129.776 235.321 130.134 235.423 130.515 235.509L132.083 235.884C132.844 236.054 133.543 236.281 134.18 236.565C134.816 236.849 135.367 237.199 135.833 237.614C136.299 238.028 136.66 238.517 136.915 239.08C137.177 239.642 137.31 240.287 137.316 241.014C137.31 242.082 137.038 243.009 136.498 243.793C135.964 244.571 135.191 245.176 134.18 245.608C133.174 246.034 131.961 246.247 130.54 246.247C129.131 246.247 127.904 246.031 126.859 245.599C125.819 245.168 125.006 244.528 124.421 243.682C123.842 242.83 123.538 241.776 123.509 240.52H127.08C127.12 241.105 127.288 241.594 127.583 241.986C127.884 242.372 128.285 242.665 128.785 242.864C129.29 243.057 129.862 243.153 130.498 243.153C131.123 243.153 131.665 243.062 132.126 242.881C132.592 242.699 132.952 242.446 133.208 242.122C133.464 241.798 133.592 241.426 133.592 241.006C133.592 240.614 133.475 240.284 133.242 240.017C133.015 239.75 132.68 239.523 132.237 239.335C131.799 239.148 131.262 238.977 130.626 238.824L128.725 238.347C127.254 237.989 126.092 237.429 125.239 236.668C124.387 235.906 123.964 234.881 123.969 233.591C123.964 232.534 124.245 231.611 124.813 230.821C125.387 230.031 126.174 229.415 127.174 228.972C128.174 228.528 129.31 228.307 130.583 228.307C131.879 228.307 133.009 228.528 133.975 228.972C134.947 229.415 135.702 230.031 136.242 230.821C136.782 231.611 137.06 232.526 137.077 233.565H133.54ZM139.134 231.588V228.545H153.469V231.588H148.125V246H144.477V231.588H139.134ZM171.072 237.273C171.072 239.176 170.712 240.795 169.99 242.131C169.274 243.466 168.297 244.486 167.058 245.19C165.825 245.889 164.439 246.239 162.899 246.239C161.348 246.239 159.956 245.886 158.723 245.182C157.49 244.477 156.516 243.457 155.8 242.122C155.084 240.787 154.726 239.17 154.726 237.273C154.726 235.369 155.084 233.75 155.8 232.415C156.516 231.08 157.49 230.062 158.723 229.364C159.956 228.659 161.348 228.307 162.899 228.307C164.439 228.307 165.825 228.659 167.058 229.364C168.297 230.062 169.274 231.08 169.99 232.415C170.712 233.75 171.072 235.369 171.072 237.273ZM167.331 237.273C167.331 236.04 167.146 235 166.777 234.153C166.413 233.307 165.899 232.665 165.234 232.227C164.57 231.79 163.791 231.571 162.899 231.571C162.007 231.571 161.229 231.79 160.564 232.227C159.899 232.665 159.382 233.307 159.013 234.153C158.649 235 158.467 236.04 158.467 237.273C158.467 238.506 158.649 239.545 159.013 240.392C159.382 241.239 159.899 241.881 160.564 242.318C161.229 242.756 162.007 242.974 162.899 242.974C163.791 242.974 164.57 242.756 165.234 242.318C165.899 241.881 166.413 241.239 166.777 240.392C167.146 239.545 167.331 238.506 167.331 237.273Z" fill="white"/>
<path d="M22.7159 160.422L24.2841 157.706L26.8291 157.355L29.1694 156.915L33.8049 156.216L32.0833 159.198L28.9371 159.704L27.152 159.864L22.7159 160.422ZM25.139 150.907C26.7874 151.859 28.0093 152.981 28.8049 154.274C29.6033 155.561 29.9979 156.918 29.9887 158.343C29.9775 159.76 29.5869 161.135 28.817 162.469C28.0414 163.812 27.0403 164.841 25.8137 165.557C24.5871 166.272 23.2166 166.606 21.7023 166.559C20.188 166.511 18.6091 166.013 16.9657 165.064C15.3173 164.112 14.0939 162.993 13.2955 161.705C12.4971 160.417 12.1035 159.065 12.1148 157.648C12.1211 156.228 12.512 154.846 13.2876 153.503C14.0575 152.169 15.0557 151.145 16.2824 150.429C17.5069 149.706 18.8764 149.368 20.3906 149.416C21.9078 149.458 23.4906 149.956 25.139 150.907ZM23.2682 154.148C22.2004 153.531 21.2076 153.171 20.2898 153.068C19.3748 152.959 18.5617 153.084 17.8504 153.44C17.1392 153.797 16.5605 154.362 16.1145 155.135C15.6685 155.907 15.4687 156.691 15.5152 157.485C15.5617 158.28 15.8592 159.048 16.4077 159.792C16.9591 160.53 17.7686 161.207 18.8364 161.824C19.9042 162.44 20.8955 162.803 21.8105 162.911C22.7284 163.014 23.5429 162.888 24.2542 162.531C24.9655 162.174 25.5441 161.609 25.9901 160.836C26.4361 160.064 26.6359 159.28 26.5894 158.486C26.5429 157.691 26.244 156.925 25.6926 156.187C25.1441 155.444 24.336 154.764 23.2682 154.148ZM24.3384 134.839L26.1835 131.643L36.0001 137.311C37.1024 137.947 37.9148 138.768 38.4375 139.771C38.963 140.77 39.1857 141.873 39.1057 143.08C39.0207 144.284 38.6174 145.511 37.8958 146.761C37.1713 148.015 36.309 148.981 35.3088 149.656C34.3036 150.329 33.2372 150.688 32.1094 150.732C30.9816 150.776 29.8666 150.48 28.7643 149.844L18.9477 144.176L20.7929 140.98L30.3364 146.49C30.9121 146.823 31.4963 146.993 32.089 147C32.6845 147.003 33.2437 146.847 33.7666 146.532C34.2895 146.217 34.7285 145.752 35.0836 145.137C35.4416 144.517 35.6247 143.904 35.6331 143.299C35.6443 142.689 35.4984 142.129 35.1955 141.62C34.8955 141.105 34.4576 140.682 33.8819 140.349L24.3384 134.839ZM44.322 135.136L42.3447 138.561L30.2414 124.615L32.6193 120.496L50.7439 124.013L48.7666 127.438L34.9187 124.491L34.8505 124.609L44.322 135.136ZM38.2568 131.919L42.9272 123.83L45.422 125.27L40.7515 133.36L38.2568 131.919ZM51.7943 122.193L36.6782 113.466L38.5234 110.27L51.0045 117.476L54.746 110.996L57.3809 112.517L51.7943 122.193ZM45.332 98.4774L60.4481 107.205L58.6029 110.401L43.4868 101.673L45.332 98.4774ZM65.0599 99.2167L61.9662 104.575L46.8501 95.848L49.9694 90.4451C50.8472 88.9247 51.9055 87.7905 53.1443 87.0427C54.3781 86.292 55.7289 85.9466 57.1966 86.0067C58.6672 86.0619 60.1873 86.5426 61.757 87.4489C63.3316 88.358 64.5129 89.4369 65.3009 90.6857C66.0917 91.9296 66.4701 93.2798 66.4362 94.7364C66.405 96.188 65.9463 97.6815 65.0599 99.2167ZM61.073 99.7983L62.2449 97.7686C62.7904 96.8238 63.0819 95.9326 63.1194 95.0948C63.1549 94.2492 62.9121 93.4596 62.391 92.7257C61.8679 91.9841 61.0429 91.288 59.9161 90.6374C58.7991 89.9925 57.7912 89.6304 56.8923 89.551C55.9962 89.4667 55.1948 89.6502 54.488 90.1016C53.7813 90.553 53.1552 91.2511 52.6097 92.1959L51.4336 94.233L61.073 99.7983ZM71.7087 87.7007L69.7314 91.1254L57.6281 77.1798L60.006 73.0613L78.1306 76.5776L76.1533 80.0024L62.3054 77.0558L62.2372 77.1739L71.7087 87.7007ZM65.6435 84.4843L70.314 76.3948L72.8087 77.8352L68.1383 85.9246L65.6435 84.4843ZM82.2748 69.3997L79.181 74.7583L64.0649 66.031L67.1843 60.6282C68.0621 59.1077 69.1204 57.9735 70.3591 57.2257C71.593 56.475 72.9438 56.1297 74.4115 56.1898C75.8821 56.2449 77.4022 56.7257 78.9718 57.6319C80.5464 58.541 81.7277 59.6199 82.5157 60.8687C83.3065 62.1126 83.685 63.4628 83.651 64.9194C83.6199 66.3711 83.1611 67.8645 82.2748 69.3997ZM78.2879 69.9814L79.4597 67.9516C80.0052 67.0069 80.2967 66.1156 80.3343 65.2778C80.3697 64.4323 80.1269 63.6426 79.6059 62.9087C79.0827 62.1671 78.2578 61.471 77.1309 60.8204C76.014 60.1756 75.006 59.8134 74.1071 59.734C73.211 59.6497 72.4096 59.8332 71.7029 60.2846C70.9961 60.736 70.37 61.4341 69.8246 62.3789L68.6484 64.416L78.2879 69.9814ZM87.9115 59.6366L72.7954 50.9094L78.6761 40.7237L81.3111 42.245L77.2756 49.2347L80.8774 51.3143L84.6104 44.8486L87.2454 46.3699L83.5124 52.8356L87.1217 54.9194L91.1742 47.9002L93.8092 49.4215L87.9115 59.6366Z" fill="white"/>
</svg>
